<?xml version="1.0" encoding="UTF-8"?>
<svg style="transform: rotate(90deg); " xmlns="http://www.w3.org/2000/svg" xmlns:xlink="http://www.w3.org/1999/xlink" width="20px" height="20px" viewBox="0 0 20 20" version="1.1">
<g id="surface1">
<path style=" stroke:none;fill-rule:nonzero;fill:#c00021;fill-opacity:1;" d="M 19.992188 9.730469 C 19.957031 9.578125 19.839844 9.457031 19.691406 9.425781 L 18.136719 9.066406 L 18.96875 6.324219 C 19.011719 6.183594 18.972656 6.027344 18.871094 5.925781 C 18.765625 5.820312 18.613281 5.785156 18.472656 5.824219 L 15.726562 6.660156 L 15.371094 5.105469 C 15.335938 4.953125 15.214844 4.835938 15.0625 4.800781 C 14.910156 4.769531 14.753906 4.832031 14.660156 4.957031 L 13.0625 7.101562 L 13.660156 2.988281 C 13.683594 2.832031 13.613281 2.679688 13.484375 2.59375 C 13.355469 2.511719 13.1875 2.507812 13.054688 2.589844 L 11.703125 3.441406 L 10.351562 0.910156 C 10.28125 0.777344 10.144531 0.699219 10 0.699219 C 9.855469 0.699219 9.71875 0.777344 9.648438 0.910156 L 8.296875 3.441406 L 6.945312 2.589844 C 6.8125 2.507812 6.644531 2.511719 6.515625 2.59375 C 6.386719 2.679688 6.316406 2.832031 6.339844 2.988281 L 6.9375 7.101562 L 5.339844 4.957031 C 5.246094 4.832031 5.089844 4.769531 4.9375 4.800781 C 4.785156 4.835938 4.664062 4.953125 4.628906 5.105469 L 4.273438 6.660156 L 1.527344 5.824219 C 1.386719 5.785156 1.234375 5.820312 1.128906 5.925781 C 1.027344 6.027344 0.988281 6.183594 1.03125 6.324219 L 1.863281 9.066406 L 0.308594 9.425781 C 0.160156 9.457031 0.0429688 9.578125 0.0078125 9.730469 C -0.0234375 9.882812 0.0351562 10.039062 0.160156 10.132812 L 6.464844 14.832031 L 4.957031 16.613281 C 4.859375 16.734375 4.839844 16.902344 4.902344 17.042969 C 4.96875 17.183594 5.109375 17.269531 5.261719 17.269531 L 9.601562 17.269531 L 9.601562 18.902344 C 9.601562 19.125 9.777344 19.300781 10 19.300781 C 10.21875 19.300781 10.398438 19.125 10.398438 18.902344 L 10.398438 17.269531 L 14.738281 17.269531 C 14.890625 17.269531 15.03125 17.183594 15.097656 17.042969 C 15.160156 16.902344 15.140625 16.734375 15.042969 16.613281 L 13.535156 14.832031 L 19.839844 10.132812 C 19.964844 10.039062 20.023438 9.882812 19.992188 9.730469 Z M 12.722656 14.445312 C 12.636719 14.511719 12.578125 14.609375 12.566406 14.71875 C 12.550781 14.828125 12.585938 14.9375 12.65625 15.019531 L 13.878906 16.472656 L 6.121094 16.472656 L 7.34375 15.019531 C 7.414062 14.9375 7.449219 14.828125 7.433594 14.71875 C 7.421875 14.609375 7.363281 14.511719 7.277344 14.445312 L 1.328125 10.007812 L 2.457031 9.75 C 2.566406 9.726562 2.660156 9.660156 2.714844 9.5625 C 2.769531 9.464844 2.785156 9.351562 2.753906 9.246094 L 2.269531 7.664062 L 6.691406 11.980469 C 6.769531 12.054688 6.871094 12.089844 6.972656 12.089844 C 7.074219 12.089844 7.179688 12.050781 7.257812 11.972656 C 7.410156 11.816406 7.410156 11.5625 7.25 11.410156 L 2.765625 7.035156 L 4.453125 7.546875 C 4.558594 7.578125 4.671875 7.566406 4.769531 7.511719 C 4.863281 7.453125 4.933594 7.363281 4.957031 7.253906 L 5.214844 6.121094 L 7.238281 8.839844 C 7.347656 8.984375 7.542969 9.039062 7.714844 8.96875 C 7.878906 8.898438 7.980469 8.722656 7.953125 8.542969 L 7.253906 3.722656 L 8.234375 4.339844 C 8.328125 4.402344 8.441406 4.417969 8.550781 4.386719 C 8.65625 4.363281 8.746094 4.289062 8.796875 4.191406 L 9.601562 2.6875 L 9.601562 9.503906 C 9.601562 9.722656 9.777344 9.902344 10 9.902344 C 10.21875 9.902344 10.398438 9.722656 10.398438 9.503906 L 10.398438 2.6875 L 11.203125 4.191406 C 11.253906 4.289062 11.34375 4.363281 11.449219 4.386719 C 11.558594 4.417969 11.671875 4.402344 11.765625 4.339844 L 12.746094 3.722656 L 12.046875 8.542969 C 12.019531 8.722656 12.121094 8.898438 12.285156 8.96875 C 12.457031 9.039062 12.652344 8.984375 12.761719 8.839844 L 14.785156 6.121094 L 15.042969 7.253906 C 15.066406 7.363281 15.136719 7.453125 15.230469 7.511719 C 15.328125 7.566406 15.441406 7.578125 15.546875 7.546875 L 17.222656 7.035156 L 13.804688 10.371094 C 13.648438 10.527344 13.644531 10.777344 13.800781 10.933594 C 13.878906 11.015625 13.980469 11.054688 14.082031 11.054688 C 14.183594 11.054688 14.285156 11.019531 14.363281 10.941406 L 17.730469 7.65625 L 17.246094 9.246094 C 17.214844 9.351562 17.230469 9.464844 17.285156 9.5625 C 17.339844 9.660156 17.433594 9.726562 17.542969 9.75 L 18.671875 10.007812 Z M 12.722656 14.445312 "/>
<path style=" stroke:none;fill-rule:nonzero;fill:rgb(0%,0%,0%);fill-opacity:1;" d="M 13.433594 11.292969 C 13.277344 11.136719 13.027344 11.132812 12.871094 11.285156 L 12.742188 11.410156 C 12.585938 11.5625 12.582031 11.816406 12.738281 11.972656 C 12.816406 12.050781 12.917969 12.089844 13.019531 12.089844 C 13.121094 12.089844 13.222656 12.054688 13.300781 11.980469 L 13.425781 11.855469 C 13.582031 11.703125 13.585938 11.449219 13.433594 11.292969 Z M 13.433594 11.292969 "/>
</g>
</svg>
